<?xml version="1.0" encoding="utf-8"?>
<!-- Generator: Adobe Illustrator 19.1.0, SVG Export Plug-In . SVG Version: 6.00 Build 0)  -->
<svg version="1.1" id="Layer_1" xmlns="http://www.w3.org/2000/svg" xmlns:xlink="http://www.w3.org/1999/xlink" x="0px" y="0px"
	 viewBox="-42 544 199 194" style="enable-background:new -42 544 199 194;" xml:space="preserve">
<style type="text/css">
	.st0{fill:#4E2A84;}
	.st1{fill:none;}
</style>
<g id="tUoWYU.tif_1_">
	<g>
		<path class="st0" d="M79.9,556c-1.7,5.3-3.5,10.7-5.3,16.1c22.6,8.8,38.5,24.4,46.2,47.4c6,17.6,5.2,35.3-1.9,52.5
			c-13.2,32.3-50.7,55.8-93.9,43c-1.4,4-2.9,8.1-4.4,12.2c-1.7-0.9-0.6-2-0.3-2.9c6.7-19.3,13.4-38.7,20-57.9
			c12.4-35.9,24.8-71.7,37.2-107.5c0.3-1,0.8-2,1.1-3C79.1,556,79.5,556,79.9,556z M80.9,602.2L80.9,602.2c0.2,0.4-0.1,0.8-0.3,1.2
			c-7.9,13.1-15.6,26.3-26.3,37.4c-1.1,1.1-1.9,2.3-0.9,4c3.5,2.4,7.1,4.7,10.6,7.2c0.9-0.7,1.5-1.2,2.1-1.7c2.4-0.3,4.8-0.3,6,1.6
			c1.9,3.4,3.1,7.2,4.7,11.1c-4.3,0.2-8.2,0.1-12-0.4c-2.6-0.4-3.5-1.9-3.5-4.2c0-1,0.2-2.1,0.3-3.3c-3.3-2.2-6.6-4.4-9.8-6.6
			c-1.2,0.1-2.4,0.3-3.8,0.4c-6.5,18.8-13.1,37.6-19.5,56.4c16,6.8,41.9,5.3,61.8-10.5c20.2-16,29.3-43.5,22.1-68.2
			c-6.3-21.5-20.3-36-41.3-44.2c-6.3,18.1-12.3,35.8-18.5,53.4c0.2,0.1,0.4,0.2,0.6,0.4C60.7,623.5,70.8,612.8,80.9,602.2z"/>
		<path class="st0" d="M31.8,718.9c0,0.1,0,0.1,0,0.2c-0.1-0.1-0.2-0.2-0.2-0.2C31.6,718.9,31.7,718.9,31.8,718.9z"/>
		<path class="st0" d="M77.9,590.9c1.4,0.3,2.3,1,3.5,1.9c-3.1,5-6.1,10.1-9.2,15.2c-1.2-0.7-2.3-1.3-3.4-2.1
			C71.9,600.8,74.9,595.8,77.9,590.9z"/>
		<path class="st0" d="M99.9,612c0.9,1.2,1.6,2.1,1.9,3.5c-4.8,2.9-9.9,5.9-14.7,8.7c-1.4-0.6-1.5-2-2.6-3.1
			C89.6,618,94.6,615.1,99.9,612z"/>
		<path class="st0" d="M84.5,666.7c0.3-1.4,0.9-2.4,2-3.5c5,2.9,10.1,5.9,15.1,8.7c-0.3,1.4-0.9,2.4-2,3.5
			C94.6,672.5,89.6,669.6,84.5,666.7z"/>
		<path class="st0" d="M80,693.1c-0.9,1.1-1.9,1.7-3.3,2.3c-3.1-4.9-6.2-9.9-9.2-14.7c0.8-1.3,2-1.7,3.3-2.3
			C74,683.3,77,688.3,80,693.1z"/>
		<path class="st0" d="M46.6,701.1c-0.2-5.9,0.1-11.4,0.4-17c1.1-0.8,2.2-0.4,3.4-0.3c0,5.8,0,11.5,0,17.3
			C49.2,701.6,48,701.4,46.6,701.1z"/>
		<path class="st0" d="M107.3,642.1c0,0.3,0.1,0.7,0.1,1c0,0.7,0,1.3,0,2.5c-5.9,0-11.6,0-17.6,0c-0.5-0.8-0.5-2,0-3.5
			C95.4,642.1,101.2,642.1,107.3,642.1z"/>
		<path class="st0" d="M79.4,610C79.4,610,79.3,609.9,79.4,610C79.3,609.9,79.4,610,79.4,610z"/>
		<path class="st0" d="M81.9,601.8c-0.3,0.1-0.7,0.2-1,0.3l0.1,0.1C81.3,602.1,81.6,602,81.9,601.8L81.9,601.8z"/>
	</g>
</g>
</svg>
