<?xml version="1.0" encoding="utf-8"?>
<!-- Generator: Adobe Illustrator 19.1.0, SVG Export Plug-In . SVG Version: 6.00 Build 0)  -->
<svg version="1.1" id="Layer_1" xmlns="http://www.w3.org/2000/svg" xmlns:xlink="http://www.w3.org/1999/xlink" x="0px" y="0px"
	 viewBox="452 544 199 194" style="enable-background:new 452 544 199 194;" xml:space="preserve">
<style type="text/css">
	.st0{fill:#4E2A84;}
	.st1{fill:none;}
</style>
<g>
	<path class="st1" d="M495.5,616.7c-0.9-0.7-2-1.1-3.3-1c0.8-0.6,1.4-1.4,1.6-2.2c0.3-0.9,0.2-1.8-0.1-2.8c-0.6-1.9-1.7-3.1-3.3-3.6
		c-1.6-0.5-3.8-0.3-6.8,0.6l-8.2,2.5l6.3,21l9.1-2.7c2.8-0.9,4.8-2,5.8-3.4c1.1-1.4,1.3-3.1,0.7-5.1
		C497.1,618.5,496.4,617.4,495.5,616.7z M482.1,612.1l3-0.9c0.9-0.3,1.6-0.3,2.1,0c0.6,0.2,0.9,0.7,1.2,1.4c0.2,0.7,0.2,1.3-0.2,1.9
		c-0.3,0.5-0.9,0.9-1.8,1.2l-3,0.9L482.1,612.1z M491.7,623.3c-0.4,0.6-1.2,1.1-2.3,1.4l-3.2,1l-1.7-5.5l3.2-1
		c1.1-0.3,2-0.4,2.7-0.1c0.7,0.3,1.2,0.9,1.4,1.8C492.2,621.9,492.1,622.7,491.7,623.3z"/>
	<path class="st1" d="M502.2,586.6l1.3,2.4c0.1,0.1,0.2,0.2,0.3,0.2l1.8-0.4l1.8-0.4c0,0,0,0,0,0l0.2-0.1h0c2.3-0.5,3.7-1.9,2.2-4.2
		c-1.1-1.7-2.9-1.9-5.2-1.1C502.4,583.6,501.2,584.8,502.2,586.6z"/>
	<polygon class="st1" points="536.4,588.4 536,588.7 528.1,593.7 529,597.1 537.2,595.7 541.6,595 542.1,599.7 538.1,601.6 
		538.1,601.6 538.1,601.6 534,601.2 533.2,598.4 533.2,598.4 529.6,599 529.5,599 531,604.5 538.8,605.5 538.8,605.5 538.8,605.5 
		545.9,602 545,590.8 536.6,592.2 536.5,592.2 536.6,592.2 544.6,587 544.4,583.4 535.3,584.9 526.1,586.5 527.2,590 535.9,588.5 	
		"/>
	<polygon class="st1" points="565.9,618.5 565.9,618.5 573.9,618.2 574.1,617.6 577.2,608.1 577.5,607.1 576.6,606.9 569,605.1 
		569,605.1 564.1,604 564.7,600.2 569.9,601.4 569.9,601.4 578.7,603.4 578.8,603.4 579,602.6 579.6,600.8 579.9,599.8 570.7,597.7 
		570.7,597.7 561.5,595.6 561.4,596.6 559.9,606.9 568.1,608.8 568.2,608.8 572.7,609.9 571.1,614.5 566.8,614.7 566.8,614.7 
		566.8,614.7 562.9,612.6 563.4,609.6 561.4,609.2 559.7,608.8 558.8,614.7 565.9,618.5 	"/>
	<path class="st1" d="M516.5,604.6C516.4,604.6,516.4,604.6,516.5,604.6C516.4,604.6,516.4,604.6,516.5,604.6
		C516.4,604.6,516.4,604.6,516.5,604.6C516.4,604.6,516.4,604.6,516.5,604.6c-0.2,0.1-0.2,0.1-0.2,0.3l1.7,3.1
		c0.1,0.1,0.2,0.2,0.3,0.1l0,0l0,0c0.8-0.3,1.2-0.9,0.6-2.2C518.3,604.8,517.4,604.4,516.5,604.6z"/>
	<path class="st1" d="M608.5,610l-6.5,10.9c-1,1.6-1.9,1.6-2.9,1c-1.1-0.7-1.1-1.7-1.1-2.9l-3.6,0c-0.2,2.1,0.5,4.3,3.1,5.8
		c2.8,1.7,5.7,1.4,7.7-2l6.6-11L608.5,610z"/>
	<path class="st1" d="M617.5,619c0.9,0.6,1.3,1.3,1.2,2.6l3.5-0.1c0.1-2.5-1-4.1-3-5.3c-2.9-1.7-5.8-1-7.2,1.4
		c-1.6,2.6-0.8,4.8,1,7.2l0.6,0.8c1.1,1.5,1.7,2.4,1.1,3.5c-0.6,0.9-1.8,1.1-3.1,0.3c-1.6-0.9-2-2.3-2-3.8l-3.5,0
		c-0.2,2.4,0.9,5,3.9,6.8c3.1,1.8,6.3,1.6,8-1.3c1.6-2.7,0.8-4.8-1.3-7.6l-0.6-0.8c-1-1.4-1.4-2.2-0.8-3.1
		C615.6,618.7,616.6,618.4,617.5,619z"/>
	<path class="st1" d="M538.2,638.2c-8.2,0.4-16.4,0.9-24.2,3.4c-1.5,0.5-3.1,0.9-3.8,2.9c2,2.5,5.1,3,8.1,3.5
		c13.9,2.7,28,2.8,42.2,2.3c8-0.3,16-1,23.8-2.8c2.1-0.5,4.5-0.9,5.7-3.1c-0.5-1.7-1.9-2.1-3.2-2.6c-2.9-1-5.9-1.6-8.9-2.1
		C564.7,637.8,551.5,637.5,538.2,638.2z"/>
	<path class="st0" d="M563.6,634.9c-0.8,0-1.6,0.1-2.2-0.5c-7.3,0-14.6,0-21.9,0c-4.9,0.5-9.7,1.1-14.6,1.6
		c-4.9,0.5-9.7,1.5-14.4,2.9c-2.9,0.9-5.7,2.1-7.8,4.4c0,0.6,0,1.2,0,1.8c12.9,17.3,25.7,34.5,38.6,51.7c1.5,2,1.5,4.2,1.7,6.4
		c0.7,8.2,1.4,16.3,2.1,24.4c1.1,1.2,2.8,0.6,3.8,1.6c0.8,0,1.6,0,2.4,0c0.9-1.1,2.4-0.7,3.6-1.6c0.8-2.2,0.5-4.7,0.7-7.1
		c0.6-7,1.1-14,1.6-20.9c0.1-1.2,0.7-2,1.4-2.9c13-17.2,26-34.5,39-51.7c0-0.6,0-1.2,0-1.8c-4.6-4.6-10.8-5.3-16.7-6.5
		C575.2,635.7,569.4,635.2,563.6,634.9z M589.9,644.4c-1.2,2.2-3.6,2.6-5.7,3.1c-7.8,1.9-15.8,2.6-23.8,2.8
		c-14.1,0.5-28.2,0.4-42.2-2.3c-2.9-0.6-6-1-8.1-3.5c0.7-2,2.3-2.4,3.8-2.9c7.9-2.5,16.1-3,24.2-3.4c13.2-0.6,26.4-0.4,39.6,1.5
		c3,0.4,6,1,8.9,2.1C588,642.2,589.4,642.7,589.9,644.4z"/>
	<path class="st0" d="M488.2,614.5c0.3-0.5,0.4-1.1,0.2-1.9c-0.2-0.7-0.6-1.2-1.2-1.4c-0.6-0.2-1.3-0.2-2.1,0l-3,0.9l1.3,4.4l3-0.9
		C487.3,615.4,487.9,615,488.2,614.5z"/>
	<path class="st0" d="M490.4,619.2c-0.7-0.3-1.6-0.3-2.7,0.1l-3.2,1l1.7,5.5l3.2-1c1.1-0.3,1.9-0.8,2.3-1.4c0.4-0.6,0.5-1.4,0.2-2.3
		C491.6,620.1,491.1,619.5,490.4,619.2z"/>
	<path class="st0" d="M507.2,624.5l-6.9-22.9c-0.9-3-4.1-4.7-7.1-3.8l-22.8,6.9c-3,0.9-4.7,4.1-3.8,7.1l6.9,22.9
		c0.9,3,4.1,4.7,7.1,3.8l22.8-6.9C506.4,630.6,508.1,627.5,507.2,624.5z M496.8,624.9c-1.1,1.4-3,2.5-5.8,3.4l-9.1,2.7l-6.3-21
		l8.2-2.5c2.9-0.9,5.2-1.1,6.8-0.6c1.6,0.5,2.7,1.7,3.3,3.6c0.3,1,0.3,2,0.1,2.8c-0.3,0.9-0.8,1.6-1.6,2.2c1.3,0,2.4,0.3,3.3,1
		c0.9,0.7,1.6,1.7,2,3C498.1,621.8,497.8,623.5,496.8,624.9z"/>
	<polygon class="st0" points="529.8,577 529.5,575.3 526.9,575.7 526.6,573.9 529.2,573.5 528.8,571.6 524.3,572.3 525.3,577.8 	"/>
	<path class="st0" d="M533.2,574.6c-0.5,0.1-1.8,0.3-1.8,0.3l0.3,1.8l4.5-0.8l-0.3-1.8l-2.1-1.5l1.8-0.3l-0.3-1.9l-4.5,0.8
		c0,0,0.2,1,0.3,1.9C531.8,573.7,532.1,573.9,533.2,574.6z"/>
	<path class="st0" d="M539.5,573.6c-0.5,0.1-1.8,0.3-1.8,0.3l0.3,1.8l4.5-0.8l-0.3-1.8l-2.1-1.5l1.8-0.3l-0.3-1.9l-4.5,0.8
		c0,0,0.2,1,0.3,1.9C538.2,572.6,538.5,572.8,539.5,573.6z"/>
	<path class="st0" d="M539.9,611.7l11.3-5.2l-2.3-30l-29.1,4.9l7.7,29.1L539.9,611.7z M526.1,586.5l9.2-1.6l9.1-1.5l0.2,3.6
		l-8.1,5.2l0,0l0,0l8.4-1.4l0.9,11.2l-7.1,3.4l0,0l0,0l-7.8-0.9l-1.4-5.5l0,0l3.7-0.6l0,0l0.7,2.8l4.1,0.3l0,0l0,0l3.9-1.8l-0.5-4.7
		l-4.4,0.7l-8.2,1.4l-0.9-3.4l7.9-5l0.5-0.3l-0.5,0.1l-8.8,1.5L526.1,586.5z"/>
	<polygon class="st0" points="563.1,584.8 564.8,585.2 564.4,587.1 566.2,587.5 567.5,581.9 565.7,581.5 565.3,583.3 563.5,582.9 
		564,581.1 562.1,580.6 560.8,586.2 562.7,586.7 	"/>
	<polygon class="st0" points="569.6,584.3 568.7,588.1 570.6,588.5 571.4,584.8 573.1,585.2 573.5,583.3 568.4,582.1 567.9,584 
		569.6,584.3 	"/>
	<polygon class="st0" points="574.9,589.5 575.5,586.7 576.3,589 576.4,589 578.1,587.3 577.5,590.1 579.3,590.5 580.6,585 
		578.7,584.5 577,586.2 576.3,583.9 574.3,583.5 573,589.1 	"/>
	<polygon class="st0" points="584.8,591.8 585.2,590 582.6,589.3 583.4,585.6 581.6,585.2 580.3,590.8 	"/>
	<path class="st0" d="M577.2,624.3l9.6-29.4l-29.4-6.8l-4.3,30.6l11.2,6.1L577.2,624.3z M559.7,608.8l1.7,0.4l2,0.5l-0.4,3l3.8,2.1
		l0,0v0l4.4-0.2l1.5-4.7l-4.5-1l0,0l-8.2-1.9l1.5-10.3l0.1-1l9.2,2.1l0,0l9.2,2.1l-0.3,1l-0.6,1.8l-0.3,0.8l0,0l-8.9-2.1l0,0
		l-5.2-1.2l-0.5,3.8l4.9,1.1l0,0l7.5,1.8l1,0.2l-0.3,1l-3.1,9.5l-0.2,0.6l-8,0.3l0,0l0,0l-7-3.8L559.7,608.8z"/>
	<path class="st0" d="M602.5,585.1L582,619.3l34.2,20.5l20.5-34.2L602.5,585.1z M597.4,624.9c-2.6-1.5-3.3-3.8-3.1-5.8l3.6,0
		c0,1.2,0,2.2,1.1,2.9c1.1,0.6,2,0.6,2.9-1l6.5-10.9l3.2,1.9l-6.6,11C603.1,626.2,600.3,626.6,597.4,624.9z M616,622.6l0.6,0.8
		c2,2.8,2.9,4.9,1.3,7.6c-1.7,2.9-5,3.1-8,1.3c-3-1.8-4.1-4.4-3.9-6.8l3.5,0c0,1.5,0.4,2.9,2,3.8c1.3,0.8,2.6,0.6,3.1-0.3
		c0.7-1.1,0-2-1.1-3.5l-0.6-0.8c-1.7-2.4-2.5-4.5-1-7.2c1.4-2.4,4.4-3.1,7.2-1.4c2,1.2,3.1,2.8,3,5.3l-3.5,0.1
		c0-1.3-0.3-2.1-1.2-2.6c-0.9-0.6-1.9-0.3-2.4,0.5C614.6,620.4,615,621.1,616,622.6z"/>
	<path class="st0" d="M508.9,593C508.9,593,508.9,593,508.9,593l-0.2,0.1c-2.7,0.8-4.9,2.1-3.4,5c0,0,0,0.1,0,0.1l2.4,4.5
		c0.1,0.1,0.2,0.2,0.3,0.1l5-1.5l5-1.5c0.1,0,0.2-0.2,0.1-0.3v0l-1.1-2.1c-0.1-0.1-0.2-0.2-0.3-0.1l-3.8,1.1l-3.8,1.1
		c-0.1,0-0.3,0-0.3-0.1l-0.7-1.2l-0.1-0.2c-0.8-1.4,0.3-1.8,1.8-2.2c0,0,0,0,0,0l0.2-0.1c0,0,0,0,0,0l0.4-0.1l0.4-0.1
		c0.1,0,0.3-0.1,0.4-0.1l1.8-0.5l1.8-0.5c0.1,0,0.2-0.2,0.1-0.3l-1.1-2.1c-0.1-0.1-0.2-0.2-0.3-0.1l-2.4,0.7L508.9,593z"/>
	<polygon class="st0" points="513.1,612.5 514.2,612.2 513.1,612.5 	"/>
	<polygon class="st0" points="513.1,612.5 513.1,612.5 514,612.3 	"/>
	<path class="st0" d="M503.8,578.2c0.1,0.1,0.2,0.2,0.3,0.1l1.1-0.3l1.1-0.3l0,0c0.1,0,0.2-0.2,0.1-0.3v0l-1.2-2.3
		c-0.1-0.1-0.2-0.2-0.3-0.1l-1.1,0.3l-1.1,0.3c-0.1,0-0.2,0.2-0.1,0.3L503.8,578.2z"/>
	<path class="st0" d="M498.3,576.9c0,0-0.1,0-0.1,0l-0.1,0l-0.1,0c0,0-0.1,0-0.1,0l-1.6,0.5l-1.6,0.5c-0.1,0-0.3,0.1-0.5,0.1
		c0,0-1.5,0.3-1.9-0.5c0,0,0-0.1,0-0.1c-0.2-0.4-0.3-0.6-0.3-0.6l0,0c-0.1-0.1-0.2-0.2-0.3-0.1l-1.1,0.3l-1.1,0.3
		c-0.1,0-0.2,0.2-0.1,0.3c0.2,0.4,0.7,1.3,1,1.9c1,1.8,2.5,2.2,5.6,1.3l3.7-1.1l3.4-1c0.1,0,0.2-0.2,0.1-0.3v0l-1.2-2.3
		c-0.1-0.1-0.2-0.2-0.3-0.1l-1.6,0.4L498.3,576.9z"/>
	<polygon class="st0" points="519,615.5 517.9,615.8 519,615.5 	"/>
	<path class="st0" d="M514,614.5l0.9,1.7c0.1,0.1,0.2,0.2,0.2,0.3c0.1,0,0.3,0,0.5,0l1.7-0.5l1.7-0.5c0,0,0,0,0,0l0,0
		c0.1,0,0.2-0.1,0.3-0.1l1.8-0.5l1.7-0.5c0.1,0,0.3,0,0.3,0.1l2.9,5.4l0,0l0,0c0.1,0.1,0.2,0.1,0.3,0.1l0.3-0.3l0,0l0,0l0.3-0.3
		l0.2-0.2c0.6-0.6,0.7-1.3,0.1-2.5l-1-1.8l-0.9-1.7l-0.1-0.1l-0.9-1.8c-0.1-0.1-0.2-0.2-0.3-0.1v0l-0.4,0.1l-0.5,0.2l-0.1,0l0,0l0,0
		l-8.7,2.5c0,0,0,0,0,0l4.2-1.2L514,614c-0.1,0-0.2,0.2-0.1,0.3L514,614.5c0-0.1-0.1-0.1-0.1-0.2l0,0C514,614.4,514,614.4,514,614.5
		z"/>
	<path class="st0" d="M519.4,624.4c0.1,0.1,0.2,0.2,0.3,0.2l2.1-0.5c0.1,0,0.3,0,0.5,0l11.6,1.8c0.1,0,0.2-0.1,0.1-0.2l-0.4-0.6v0
		c-0.1-0.1-0.2-0.3-0.2-0.4l-0.9-1.7c-0.1-0.1-0.2-0.2-0.3-0.2l-7.7-0.8c-0.1,0-0.2-0.1-0.1-0.2l1.1-0.9c0.1-0.1,0.1-0.2,0.1-0.4
		l-1.3-2.5c-0.1-0.1-0.2-0.1-0.3,0l-3.3,3.2c-0.1,0.1-0.3,0.2-0.4,0.2l-2.1,0.5c-0.1,0-0.2,0.2-0.1,0.3L519.4,624.4z"/>
	<path class="st0" d="M513.6,602.4c-2.8,0.8-5.1,2.1-2.9,6.3l0.1,0.1c0,0,0,0,0,0l0.1,0.1l0,0l0.1,0.1c0,0,0,0,0,0
		c0,0,0,0.1,0.1,0.1l0,0c0.1,0.2,0.2,0.3,0.3,0.5l0,0c0.6,1.1,1.2,2.2,1.4,2.6c0.1,0.1,0.2,0.2,0.3,0.1l0.9-0.3l0,0l0,0l0.2-0.1
		l1.1-0.3c0.1,0,0.2-0.2,0.1-0.3v0l0,0l-2-3.7c-0.7-1.3-0.7-2,0.3-2.5c0,0,0,0,0,0c0.1-0.1,0.4,0,0.4,0.1l3.1,5.7l0,0c0,0,0,0,0,0
		c0.1,0.1,0.2,0.1,0.3,0.1c0,0,0,0,0.1,0l0,0c3.8-0.9,5.9-2.4,3.9-6.2l0,0C519.3,601.2,516.3,601.6,513.6,602.4z M518.3,608.1
		L518.3,608.1L518.3,608.1c-0.1,0.1-0.3,0-0.3-0.1l-1.7-3.1c-0.1-0.1,0-0.2,0.1-0.2c0,0,0,0,0,0c0,0,0,0,0,0c0,0,0,0,0,0
		c0,0,0,0,0.1,0c1-0.1,1.8,0.2,2.4,1.3C519.6,607.2,519.1,607.8,518.3,608.1z"/>
	<path class="st0" d="M499.5,587.5l1.7,3.2l1.6,3c0.1,0.1,0.2,0.2,0.3,0.2l2.2-0.5c0.1,0,0.2-0.1,0.1-0.3l-0.3-0.5L505,592
		c-0.1-0.1,0-0.2,0.1-0.2c0,0,0,0,0.1,0l0,0c0,0,3.3-0.3,5-0.9c2.3-0.8,4.8-3.5,2.6-7.5c-2.2-4-6-4.2-9.6-3.2
		C499.6,581.1,497.3,583.5,499.5,587.5z M509.9,584c1.5,2.3,0,3.7-2.2,4.2h0l-0.2,0.1c0,0,0,0,0,0l-1.8,0.4l-1.8,0.4
		c-0.1,0-0.3,0-0.3-0.2l-1.3-2.4c-1-1.8,0.2-3,2.5-3.7C507.1,582.2,508.8,582.3,509.9,584z"/>
	<path class="st0" d="M486.9,565.7C486.9,565.7,486.9,565.8,486.9,565.7C486.9,565.8,486.9,565.8,486.9,565.7c0,0.2,0,0.3,0,0.3
		c0,0,0,0,0,0.1c0,0.1,0,0.2,0,0.3c0,0,0,0,0,0.1c0,0.1,0,0.2,0,0.3c0,0,0,0,0,0c0,0.1,0,0.2,0.1,0.3c0,0,0,0,0,0.1
		c0,0.1,0,0.2,0.1,0.3c1.9,5.9,7,5.2,7,5.2c-2.4-0.4-4.1-2.5-4.8-5c0-0.1,0-0.2-0.1-0.3c0,0,0,0,0-0.1c0-0.1,0-0.2-0.1-0.3
		c0,0,0,0,0,0c0-0.1,0-0.2,0-0.3c0,0,0,0,0-0.1c0-0.1,0-0.2,0-0.3c0,0,0,0,0-0.1c0-0.1,0-0.2,0-0.2c0,0,0,0,0-0.1c0-0.1,0-0.1,0-0.2
		c0,0,0-0.1,0-0.1c0-0.1,0-0.2,0-0.2c0,0,0-0.1,0-0.1c0-0.1,0-0.2,0-0.3c0,0,0-0.1,0-0.1c0-0.1,0-0.1,0-0.2c0,0,0,0,0-0.1
		c0-0.1,0-0.1,0-0.2c0,0,0-0.1,0-0.1c0-0.1,0-0.1,0-0.2c0,0,0-0.1,0-0.1c0-0.1,0-0.2,0.1-0.3c0,0,0,0,0,0c0-0.1,0-0.2,0.1-0.3
		c0,0,0-0.1,0-0.1c0-0.1,0-0.1,0.1-0.2c0,0,0-0.1,0-0.1c0-0.1,0.1-0.2,0.1-0.3c0,0,0,0,0,0c0-0.1,0.1-0.2,0.1-0.3c0,0,0,0,0-0.1
		c0-0.1,0.1-0.1,0.1-0.2c0,0,0,0,0-0.1c0-0.1,0.1-0.2,0.1-0.2c1-2.1,3.1-3.8,5.5-3.9l-1.6-0.3c-2.2-0.3-4.2,1-5.5,2.8
		c0,0-0.1,0.1-0.1,0.1c0,0,0,0.1-0.1,0.1c0,0,0,0,0,0c0,0,0,0.1-0.1,0.1c0,0.1-0.1,0.1-0.1,0.2c0,0,0,0.1-0.1,0.1
		c0,0.1-0.1,0.1-0.1,0.2c0,0,0,0,0,0.1c0,0.1-0.1,0.2-0.1,0.2c0,0,0,0,0,0c0,0,0,0,0,0c0,0.1-0.1,0.1-0.1,0.2c0,0,0,0.1,0,0.1
		c0,0.1-0.1,0.1-0.1,0.2c0,0,0,0,0,0.1c0,0.1-0.1,0.2-0.1,0.3c0,0,0,0,0,0c0,0,0,0,0,0c0,0.1-0.1,0.2-0.1,0.3c0,0,0,0.1,0,0.1
		c0,0.1,0,0.1-0.1,0.2c0,0,0,0.1,0,0.1c0,0.1,0,0.2-0.1,0.3c0,0,0,0,0,0c0,0,0,0,0,0c0,0.1,0,0.2-0.1,0.2c0,0,0,0.1,0,0.1
		c0,0.1,0,0.1,0,0.2c0,0,0,0.1,0,0.1c0,0.1,0,0.1,0,0.2c0,0,0,0.1,0,0.1c0,0,0,0,0,0c0,0.1,0,0.1,0,0.2c0,0,0,0.1,0,0.1
		c0,0.1,0,0.2,0,0.3c0,0,0,0.1,0,0.1c0,0.1,0,0.2,0,0.2c0,0,0,0.1,0,0.1C486.9,565.6,486.9,565.7,486.9,565.7z"/>
	<path class="st0" d="M493,562.7c-0.1,0.2-0.3,0.4-0.4,0.7c-0.1,0.2-0.2,0.5-0.3,0.7c0,0.1-0.1,0.2-0.1,0.3c0,0,0,0,0,0.1
		c0,0.1-0.1,0.2-0.1,0.3c0,0,0,0,0,0c0,0,0,0,0,0c0,0.1,0,0.2-0.1,0.3c0,0,0,0,0,0.1c0,0.1,0,0.2,0,0.3c0,0,0,0,0,0c0,0,0,0.1,0,0.1
		c0,0,0,0,0,0.1c0,0.1,0,0.1,0,0.2c0,0,0,0,0,0c0,0.1,0,0.1,0,0.2c0,0,0,0,0,0.1c0,0,0,0.1,0,0.1c0,0,0,0,0,0c0,0.1,0,0.2,0,0.3
		c0,0,0,0,0,0.1c0,0.1,0,0.1,0,0.2c0,0,0,0.1,0,0.1c0,0.1,0,0.1,0,0.2c0,0,0,0.1,0,0.1c0,0.1,0,0.2,0.1,0.3c1.6,4.5,5.3,3.8,5.3,3.8
		c-1.7-0.2-3.2-1.6-3.7-3.6c0-0.1,0-0.2-0.1-0.3c0,0,0-0.1,0-0.1c0-0.1,0-0.1,0-0.2c0,0,0-0.1,0-0.1c0-0.1,0-0.1,0-0.2
		c0,0,0,0,0-0.1c0-0.1,0-0.2,0-0.3c0,0,0-0.1,0-0.1c0,0,0-0.1,0-0.1c0-0.1,0-0.1,0-0.2c0,0,0,0,0,0c0-0.1,0-0.1,0-0.2c0,0,0,0,0-0.1
		c0,0,0-0.1,0-0.1c0-0.1,0-0.2,0-0.3c0,0,0,0,0-0.1c0.2-1.1,0.7-2.2,1.5-3c0.8-0.8,2-1.4,3.2-1.3l-1.3-0.2
		C495.5,560.5,493.9,561.4,493,562.7z"/>
	<path class="st0" d="M496.4,567c0,0,0,0.1,0,0.1c0,0,0,0,0,0.1c0,0.1,0,0.1,0,0.2c0.8,2.5,2.8,2.3,3.1,2.3
		c-1.1-0.1-1.8-0.9-2.1-2.2c0-0.1,0-0.2-0.1-0.3c0-0.1,0-0.3,0-0.4c0-0.3,0-0.5,0-0.8c0.2-1.4,1.3-2.8,2.9-2.8l-0.7-0.1
		c-1-0.1-1.9,0.3-2.4,1.1C496.6,564.9,496.3,566,496.4,567z"/>
</g>
</svg>
