<?xml version="1.0" encoding="utf-8"?>
<!-- Generator: Adobe Illustrator 19.1.0, SVG Export Plug-In . SVG Version: 6.00 Build 0)  -->
<svg version="1.1" id="Layer_1" xmlns="http://www.w3.org/2000/svg" xmlns:xlink="http://www.w3.org/1999/xlink" x="0px" y="0px"
	 viewBox="-290 544 199 194" style="enable-background:new -290 544 199 194;" xml:space="preserve">
<style type="text/css">
	.st0{fill:#4E2A84;}
	.st1{fill:none;}
</style>
<g>
	<path class="st1" d="M-210.9,689.2c0.7-0.2,1.2-0.9,1.7-1.4c0.9-0.8,1.7-1.5,2.7-2h-6.8C-213,687.3-212.2,688.6-210.9,689.2z"/>
	<path class="st1" d="M-168.4,689.7c0.9-0.2,1.1-0.9,1.4-1.4c0.5-0.8,0.8-1.7,1-2.6h-8C-172.1,687.1-169.9,688-168.4,689.7z"/>
	<path class="st1" d="M-242.4,639l0.2-1l10.2,1.6l0.4-2.6l-10.2-1.6l0.2-1l10.2,1.6l0.4-2.4l-10.2-1.6l0.2-1l10.2,1.6l0.4-2.6
		l-10.2-1.6l0.2-1l10.2,1.6l0.4-2.7l-10.2-1.6l0.2-1l10.2,1.6l0.4-2.6l-10.2-1.6l0.2-1l10.2,1.6l0.2-1.2c0.1-0.6,0.7-1.1,1.4-1
		l9,1.4l0.5-2.9l0,0l-0.2-0.2l-23.1-3.7l-4.8,30.2l13.1,2.1l0.9-5.7L-242.4,639z"/>
	<path class="st1" d="M-209.4,623.6l-18.3-2.9l-4.8,30.2l23.2,3.7l4.2-26C-206.8,627.2-208.2,625.5-209.4,623.6z M-211.1,648.6
		l-17.7-2.8l0.2-1.3l17.7,2.8L-211.1,648.6z M-210.5,644.9l-17.7-2.8l0.2-1.3l17.7,2.8L-210.5,644.9z M-209.9,641.5l-17.7-2.8
		l0.2-1.3l17.7,2.8L-209.9,641.5z M-209.4,637.9l-17.7-2.8l0.2-1.3l17.7,2.8L-209.4,637.9z M-208.8,634.2l-17.7-2.8l0.2-1.3
		l17.7,2.8L-208.8,634.2z M-208.2,630.5l-17.7-2.8l0.2-1.3l17.7,2.8L-208.2,630.5z"/>
	<path class="st1" d="M-167.6,657.6c0.7-0.6,0.8-1.2,0.8-1.9l-2-1C-168.4,655.7-168.3,656.7-167.6,657.6z"/>
	<path class="st1" d="M-209.5,603c-0.6-0.4-1.2-0.8-1.8-1.3c-0.2-0.2-0.5-0.4-0.9-0.4c-0.4,0.6-0.3,1.1-0.2,1.7H-209.5z"/>
	<path class="st1" d="M-169.1,601.5c-0.4-0.1-0.7,0-0.9,0.2c-0.8,0.5-1.7,1-2.5,1.4h3.9C-168.6,602.5-168.8,601.9-169.1,601.5z"/>
	<path class="st1" d="M-175.2,650l8.2,4.1c-0.2-1.3-0.5-2.5-0.7-3.8c0-0.1,0-0.3-0.1-0.4l-3.3-1.7l0.6-1.2l2.8,1.4
		c0-0.1,0.1-0.1,0.1-0.2c2.3-1.3,5.1-0.5,6.7,1.8c0.5,0.8,0.9,1.6,1.3,2.4l5.1,2.6l-0.6,1.2l-4-2c0,0.1,0.1,0.2,0.1,0.3
		c0.3,1.2,0.4,2.5,0.5,3.8l4.3,2.2l13.7-27.3l-21-10.5L-175.2,650z M-153.4,653l-16-8l0.6-1.2l16,8L-153.4,653z M-151.9,649.9l-16-8
		l0.6-1.2l16,8L-151.9,649.9z M-150.2,646.6l-16-8l0.6-1.2l16,8L-150.2,646.6z M-148.6,643.3l-16-8l0.6-1.2l16,8L-148.6,643.3z
		 M-146.9,640l-16-8l0.6-1.2l16,8L-146.9,640z M-159.8,625.7l8,4l-0.3,0.7l-8-4L-159.8,625.7z M-160.7,627.6l8,4l-0.3,0.7l-8-4
		L-160.7,627.6z"/>
	<path class="st1" d="M-122.9,605.2h-32.4c-0.1,0.9-0.3,1.7-0.7,2.6c-1.5,3.4-3.5,6.4-5.7,9.3c-2,2.7-4.3,5.3-6.6,7.8
		c-0.2,0.3-0.5,0.5-1.2,0.7c-2.2-2.9-5.3-4.8-8.5-6.2c-0.2-0.9,0.4-1.1,0.7-1.5c2.3-2.5,4.5-4.9,6.3-7.8c0.9-1.5,1.7-3.1,2.1-4.8h-9
		c-2.4,0.7-4.9,1.1-7.5,1.4c-6,0.6-12.1,0.5-18-1c-0.5-0.1-1-0.3-1.4-0.4h-6.6c1,1.9,2.3,3.7,3.9,5.3c0.6,0.6,1.3,1.1,1.8,2.2
		c-2.8,1.8-6.1,3.2-7.3,6.4c-0.9,0.1-1.2-0.3-1.6-0.6c-3.3-2.6-6.3-5.7-9-8.9c-1.1-1.4-1.8-2.8-1.9-4.4h-29.2
		c-0.9,0-1.6,0.7-1.6,1.6v75.3c0,0.9,0.7,1.6,1.6,1.6h29.7c0-1.4,0-2.8,0.1-4.2c0.3-3.1,1.6-5.6,3.8-7.6c4.2-3.7,9.3-5.8,14.6-7.4
		c0.2-0.1,0.4,0,0.9,0c0.7,3,1.8,5.8,4.5,7.7c-0.8,0.8-1.6,1.1-2.4,1.6c-3.2,1.8-6.3,3.8-8.7,6.5c-0.8,0.9-1.2,2.1-1.3,3.4h48
		c0.2-1.4,0.3-2.9,0.4-4.3c0.2-3.8-0.3-7.6-0.9-11.3c-0.1-0.5-0.3-1,0-1.8c2.8-0.3,5.9-0.4,8.4-1.8c0.7,0.3,0.7,0.7,0.8,1.1
		c1.2,6,2,12,2.1,18h32c0.9,0,1.6-0.7,1.6-1.6v-75.3C-121.4,605.9-122.1,605.2-122.9,605.2z M-208,654.9c-0.1,0.6-0.6,1-1.2,1
		c-0.1,0-0.1,0-0.2,0l-23.5-3.8c-0.6-0.1-1.1-0.7-1-1.4l0.5-3.2l-13.2-2.1c-0.6-0.1-1.1-0.7-1-1.4l4.9-30.4c0-0.3,0.2-0.6,0.5-0.8
		c0.3-0.2,0.6-0.3,0.9-0.2l23.5,3.8c0.3,0,0.6,0.2,0.8,0.5c0.2,0.3,0.3,0.6,0.2,0.9l-0.3,1.6l0,0l-0.3,1.6l7,1.1
		c-0.4-0.7-0.8-1.3-1.1-2c-0.3-0.6-0.1-1.2,0.2-1.7c1-1.8,2.7-2.7,4.6-3.1c2.6-0.6,5.3-0.3,7.6,1.2c1,0.7,1.8,1.6,2,2.8
		c0.1,0.7,0.1,1.4-0.6,1.9c-1.7,0.1-1.3-2.4-3-2.2c-0.5,0.6,0,1.1,0.2,1.6c0.7,1.8,2.2,2.9,3.4,4.4c1.1,1.4,1.1,1.9-0.1,3.2
		c-0.4,0.5-0.9,1-1.5,1.3c-2.1,1.4-3.1,1.4-5.2,0c0,0,0,0,0,0L-208,654.9z M-187.9,665c-1,0.7-2.2,1.1-3.3,1.6c-1,0.4-2,0.8-2.6,1.9
		c1.5,1.3,3.1-1.3,4.4,0.3c0.1,0.8-0.5,1-1,1.3c-3.3,1.9-6.8,2.1-10.4,0.8c-1.7-0.6-3.8-4.3-3.8-6.1c0-0.6,0.4-1.1,0.9-1.4
		c3.5-2.5,7.2-4,11.6-3.5c2.1,0.2,3.8,1.2,4.7,3.1C-186.9,663.7-187.1,664.4-187.9,665z M-186.3,633.1c-0.1-0.6,0.2-1,0.6-1.4
		c1.1-1.3,2.3-2.7,3.4-4c0.4-0.4,0.9-0.9,0.6-1.7c-1.4-0.4-2.3,2.5-3.9,0.9c-0.2-1.1,0.4-1.8,0.9-2.4c2.8-3.6,8.7-4.1,12.2-1
		c1.5,1.3,1.7,2.4,1,4.2c-1,2.5-2.8,4.3-4.8,5.9c-1.2,0.9-2.4,1.8-3.6,2.6C-182.1,637.6-185.9,635.8-186.3,633.1z M-139.2,633.7
		l-13.8,27.5c-0.3,0.6-1,0.8-1.6,0.5l-3.8-1.9c0,0.6,0.1,1.1,0.1,1.7c0.1,1.2-0.5,1.9-1.7,2.3c-1.7,0.5-3.4,0.8-5.1,0.6
		c-2-0.2-3.1-1.7-3.9-3.2c-1.1-2-1.3-4.3-1.5-6.5c0-0.3,0-0.5,0.2-0.8l-5.7-2.8c-0.6-0.3-0.8-1-0.5-1.6l13.8-27.5
		c0.3-0.6,1-0.8,1.6-0.5l21.3,10.7C-139.2,632.4-138.9,633.1-139.2,633.7z"/>
	<path class="st0" d="M-139.8,632.1l-21.3-10.7c-0.6-0.3-1.3-0.1-1.6,0.5l-13.8,27.5c-0.3,0.6-0.1,1.3,0.5,1.6l5.7,2.8
		c-0.1,0.2-0.2,0.5-0.2,0.8c0.2,2.2,0.4,4.5,1.5,6.5c0.8,1.6,1.9,3,3.9,3.2c1.7,0.2,3.4-0.1,5.1-0.6c1.2-0.4,1.8-1.1,1.7-2.3
		c0-0.6-0.1-1.1-0.1-1.7l3.8,1.9c0.6,0.3,1.3,0.1,1.6-0.5l13.8-27.5C-138.9,633.1-139.2,632.4-139.8,632.1z M-167.6,657.6
		c-0.7-0.8-0.9-1.9-1.2-2.9l2,1C-166.8,656.4-166.9,657-167.6,657.6z M-154.1,660.6l-4.3-2.2c-0.1-1.3-0.2-2.5-0.5-3.8
		c0-0.1-0.1-0.2-0.1-0.3l4,2l0.6-1.2l-5.1-2.6c-0.3-0.8-0.7-1.7-1.3-2.4c-1.6-2.3-4.4-3.1-6.7-1.8c0,0.1-0.1,0.1-0.1,0.2l-2.8-1.4
		l-0.6,1.2l3.3,1.7c0,0.1,0,0.3,0.1,0.4c0.2,1.3,0.5,2.5,0.7,3.8l-8.2-4.1l13.7-27.3l21,10.5L-154.1,660.6z"/>
	
		<rect x="-163.6" y="634.7" transform="matrix(-0.8942 -0.4477 0.4477 -0.8942 -577.3505 1134.3096)" class="st0" width="17.9" height="1.3"/>
	
		<rect x="-165.2" y="638" transform="matrix(-0.8942 -0.4477 0.4477 -0.8942 -581.9709 1139.8359)" class="st0" width="17.9" height="1.3"/>
	
		<rect x="-166.9" y="641.4" transform="matrix(-0.8942 -0.4477 0.4477 -0.8942 -586.6382 1145.4137)" class="st0" width="17.9" height="1.3"/>
	
		<rect x="-168.5" y="644.7" transform="matrix(-0.8942 -0.4477 0.4477 -0.8942 -591.2586 1150.9399)" class="st0" width="17.9" height="1.3"/>
	
		<rect x="-170.1" y="647.8" transform="matrix(-0.8942 -0.4477 0.4477 -0.8942 -595.5259 1156.0455)" class="st0" width="17.9" height="1.3"/>
	
		<rect x="-160.4" y="627.7" transform="matrix(0.8942 0.4477 -0.4477 0.8942 264.7031 136.293)" class="st0" width="8.9" height="0.7"/>
	
		<rect x="-161.4" y="629.6" transform="matrix(0.8942 0.4477 -0.4477 0.8942 265.445 136.9132)" class="st0" width="8.9" height="0.7"/>
	<path class="st0" d="M-208.7,569.6c3.2-0.9,6.4-1.7,9.9-1.9c-0.1,0.9-0.6,1.3-0.9,1.7c-4.3,5.9-4.1,14.5,0.5,20.1
		c4.9,5.9,13.4,6,18.3,0.1c4.8-5.7,5.1-14.3,0.6-20.4c-0.3-0.4-0.9-0.8-0.8-1.7c6.9,0.7,13.4,2.5,19.4,5.7c0.8-0.6,1.1-1.4,1.4-2.1
		c0.9-1.7,0.8-2.2-0.9-3.2c-3.3-2.1-6.9-3.5-10.7-4.5c-9.2-2.4-18.5-2.6-27.9-1.4c-6.1,0.8-11.9,2.2-17.5,4.8
		c-0.9,0.4-2,0.8-2.7,1.7c-0.1,1.8,1.5,3,1.9,4.8C-215,571.7-212,570.4-208.7,569.6z"/>
	<path class="st0" d="M-179,718.7c0-1,0.4-1.5,0.6-2.1c2-5.2,1.8-10.3-1.1-15.1c-4.7-8.1-15.1-8.4-20.3-0.6
		c-3.4,5.1-3.6,10.5-1.3,16.2c0.2,0.5,0.6,0.9,0.3,1.7c-6.1-0.8-11.9-2.5-17.3-5.5c-0.7,1.2-1.2,2.2-1.8,3.3c-0.5,1-0.3,1.8,0.8,2.2
		c1.1,0.5,2.2,1.1,3.4,1.5c12.4,4.7,25.1,5.7,38.1,3.5c5.8-1,11.4-2.8,16.3-6.2c0.6-0.4,1.2-0.7,1.5-1.6c-0.3-1-0.9-2-1.8-2.8
		C-167.1,716.2-172.9,717.8-179,718.7z"/>
	<path class="st0" d="M-203.9,629.5c2.1,1.4,3.1,1.4,5.2,0c0.5-0.4,1-0.8,1.5-1.3c1.2-1.3,1.2-1.8,0.1-3.2c-1.1-1.4-2.7-2.6-3.4-4.4
		c-0.2-0.5-0.6-1-0.2-1.6c1.7-0.2,1.3,2.4,3,2.2c0.7-0.5,0.7-1.2,0.6-1.9c-0.2-1.3-0.9-2.2-2-2.8c-2.4-1.5-5-1.8-7.6-1.2
		c-1.9,0.4-3.5,1.4-4.6,3.1c-0.3,0.6-0.5,1.1-0.2,1.7c0.4,0.7,0.7,1.3,1.1,2l-7-1.1l0.3-1.6l0,0l0.3-1.6c0.1-0.3,0-0.6-0.2-0.9
		c-0.2-0.3-0.5-0.4-0.8-0.5l-23.5-3.8c-0.3,0-0.6,0-0.9,0.2c-0.3,0.2-0.4,0.5-0.5,0.8l-4.9,30.4c-0.1,0.6,0.3,1.3,1,1.4l13.2,2.1
		l-0.5,3.2c-0.1,0.6,0.3,1.3,1,1.4l23.5,3.8c0.1,0,0.1,0,0.2,0c0.6,0,1.1-0.4,1.2-1L-203.9,629.5
		C-203.9,629.5-203.9,629.5-203.9,629.5z M-233.1,646.3l-13.1-2.1l4.8-30.2l23.1,3.7l0.2,0.2l0,0l-0.5,2.9l-9-1.4
		c-0.6-0.1-1.3,0.3-1.4,1l-0.2,1.2l-10.2-1.6l-0.2,1l10.2,1.6l-0.4,2.6l-10.2-1.6l-0.2,1l10.2,1.6l-0.4,2.7l-10.2-1.6l-0.2,1
		l10.2,1.6l-0.4,2.6l-10.2-1.6l-0.2,1l10.2,1.6l-0.4,2.4l-10.2-1.6l-0.2,1l10.2,1.6l-0.4,2.6l-10.2-1.6l-0.2,1l10.2,1.6
		L-233.1,646.3z M-209.2,654.6l-23.2-3.7l4.8-30.2l18.3,2.9c1.2,1.9,2.5,3.6,4.3,5L-209.2,654.6z"/>
	<path class="st0" d="M-171.5,627.6c0.7-1.8,0.5-2.9-1-4.2c-3.4-3.1-9.4-2.6-12.2,1c-0.5,0.7-1.1,1.4-0.9,2.4
		c1.7,1.5,2.5-1.3,3.9-0.9c0.3,0.8-0.2,1.3-0.6,1.7c-1.1,1.4-2.3,2.7-3.4,4c-0.3,0.4-0.7,0.8-0.6,1.4c0.3,2.6,4.2,4.5,6.3,3
		c1.2-0.8,2.5-1.7,3.6-2.6C-174.3,631.9-172.5,630.1-171.5,627.6z"/>
	<path class="st0" d="M-192.1,659.8c-4.4-0.5-8.1,1-11.6,3.5c-0.5,0.3-0.8,0.8-0.9,1.4c-0.1,1.7,2.1,5.4,3.8,6.1
		c3.6,1.3,7.1,1.1,10.4-0.8c0.5-0.3,1-0.5,1-1.3c-1.3-1.6-2.9,1-4.4-0.3c0.6-1.1,1.6-1.5,2.6-1.9c1.1-0.5,2.3-0.8,3.3-1.6
		c0.8-0.6,0.9-1.2,0.5-2.1C-188.3,661-190,660-192.1,659.8z"/>
	<path class="st0" d="M-122.9,603h-32.6c0,0,0,0,0-0.1c-0.9-2.9-1.5-5.8-2.3-8.7c-1.2-4.2-2.2-8.4-3.8-12.5
		c-2.1-5.1-5.7-8.1-11.2-8.8c-0.9-0.1-1.9-0.4-3.1,0.1c2.3,12-1.6,21.8-10.6,30h-0.1c-1-1.4-1.7-2.7-2.3-4.2
		c0.6-0.9,1.2-1.8,1.9-2.9c-2,0.3-3.7,0.3-5.5,0c0.2,1.2,1.2,1.8,1.4,2.9c-0.5,1.3-1,2.6-2.1,4.1h-0.1c-7.2-8.8-13.2-17.7-10.7-29.9
		c-3.1,0.3-5.6,1.3-7.8,2.9c-4.1,2.9-6.6,7-8.7,11.4c-2.1,4.7-3.2,9.8-4.7,14.7c-0.1,0.3-0.2,0.6-0.2,0.9h-29.3
		c-2,0-3.7,1.7-3.7,3.7v75.3c0,2,1.7,3.7,3.7,3.7h29.8c0.1,1.6,0.2,3.2,0.2,4.7c0.1,4.1,0.5,8.2,1.8,12.1c1.5,4.6,4.4,7.8,9,9.3
		c2.5,0.8,5.1,1.3,7.8,1.4c0.5,0,1.1,0.1,1.6-0.3c0.4-0.7,0.2-1.5,0.2-2.3c0.4-9.6,5.2-16.2,13.5-20.6c0.7-0.4,1.3-0.4,2,0
		c7.5,3.8,14.3,10.5,13.6,21.5c0,0.4-0.1,0.9,0.3,1.3c0.1,0,0.3,0.1,0.4,0.1c7-0.1,12.5-2.8,15.9-9c1.8-3.2,2.7-6.7,3.2-10.3
		c0.4-2.6,0.5-5.2,0.6-7.8h32c2,0,3.7-1.7,3.7-3.7v-75.3C-119.2,604.7-120.9,603-122.9,603z M-170,601.6c0.2-0.1,0.4-0.3,0.9-0.2
		c0.3,0.5,0.5,1,0.5,1.6h-3.9C-171.7,602.6-170.8,602.1-170,601.6z M-212.3,601.4c0.4,0,0.7,0.2,0.9,0.4c0.6,0.5,1.2,0.9,1.8,1.3
		h-2.9C-212.6,602.5-212.6,601.9-212.3,601.4z M-209.2,687.8c-0.5,0.5-0.9,1.2-1.7,1.4c-1.2-0.6-2.1-1.9-2.5-3.4h6.8
		C-207.5,686.3-208.4,687-209.2,687.8z M-167.1,688.4c-0.3,0.5-0.5,1.2-1.4,1.4c-1.5-1.7-3.6-2.7-5.6-4h8
		C-166.3,686.7-166.6,687.5-167.1,688.4z M-121.4,682.1c0,0.9-0.7,1.6-1.6,1.6h-32c-0.1-6-0.9-12-2.1-18c-0.1-0.4-0.1-0.8-0.8-1.1
		c-2.5,1.3-5.5,1.4-8.4,1.8c-0.3,0.8-0.1,1.3,0,1.8c0.6,3.7,1.1,7.5,0.9,11.3c-0.1,1.4-0.2,2.9-0.4,4.3h-48c0.1-1.3,0.5-2.5,1.3-3.4
		c2.5-2.7,5.6-4.7,8.7-6.5c0.7-0.4,1.6-0.7,2.4-1.6c-2.7-1.9-3.8-4.8-4.5-7.7c-0.5,0-0.7-0.1-0.9,0c-5.3,1.6-10.4,3.6-14.6,7.4
		c-2.2,2-3.5,4.5-3.8,7.6c-0.1,1.4-0.2,2.8-0.1,4.2h-29.7c-0.9,0-1.6-0.7-1.6-1.6v-75.3c0-0.9,0.7-1.6,1.6-1.6h29.2
		c0.1,1.6,0.8,3,1.9,4.4c2.7,3.2,5.7,6.2,9,8.9c0.4,0.3,0.7,0.7,1.6,0.6c1.2-3.3,4.5-4.7,7.3-6.4c-0.5-1.1-1.2-1.6-1.8-2.2
		c-1.6-1.6-2.8-3.3-3.9-5.3h6.6c0.5,0.2,0.9,0.3,1.4,0.4c5.9,1.5,11.9,1.6,18,1c2.6-0.3,5.1-0.7,7.5-1.4h9c-0.4,1.7-1.1,3.3-2.1,4.8
		c-1.8,2.9-4.1,5.3-6.3,7.8c-0.3,0.4-0.9,0.7-0.7,1.5c3.3,1.4,6.3,3.3,8.5,6.2c0.7-0.1,0.9-0.4,1.2-0.7c2.3-2.5,4.5-5.1,6.6-7.8
		c2.2-2.9,4.2-6,5.7-9.3c0.4-0.9,0.6-1.7,0.7-2.6h32.4c0.9,0,1.6,0.7,1.6,1.6V682.1z"/>
	
		<rect x="-225.8" y="627.8" transform="matrix(-0.9874 -0.158 0.158 -0.9874 -530.3728 1214.7964)" class="st0" width="17.9" height="1.3"/>
	
		<rect x="-226.4" y="631.5" transform="matrix(-0.9874 -0.158 0.158 -0.9874 -532.112 1221.9673)" class="st0" width="17.9" height="1.3"/>
	
		<rect x="-227" y="635.2" transform="matrix(-0.9874 -0.158 0.158 -0.9874 -533.8683 1229.2073)" class="st0" width="17.9" height="1.3"/>
	
		<rect x="-227.6" y="638.8" transform="matrix(-0.9874 -0.158 0.158 -0.9874 -535.6119 1236.3757)" class="st0" width="17.9" height="1.3"/>
	
		<rect x="-228.1" y="642.2" transform="matrix(-0.9874 -0.158 0.158 -0.9874 -537.2148 1243.0015)" class="st0" width="17.9" height="1.3"/>
	
		<rect x="-228.7" y="645.9" transform="matrix(-0.9874 -0.158 0.158 -0.9874 -538.9583 1250.1698)" class="st0" width="17.9" height="1.3"/>
	<path class="st0" d="M-115.9,564.8c-4-1.2-8.2-1.3-12.3-0.9c-2.4,0.2-4.8,0.8-7,1.9c-3.5,1.8-5.6,4.6-6,8.6
		c-0.2,1.4,0.1,2.8,0.1,4.3c-2,2.2-3.9,4.4-6,6.7c0.6,0.3,1.1,0.1,1.5,0.1c2.3-0.4,4.7-0.8,7-1.2c0.6-0.1,1.2-0.3,1.8,0
		c4.2,2.2,8.8,2.3,13.4,2.2c3.2-0.1,6.4-0.5,9.4-1.8c2.9-1.3,5-3.2,5.7-6.4C-107.3,573.6-108.4,567.1-115.9,564.8z"/>
	<path class="st0" d="M-234.5,702.3c-2.8,0.4-5.5,0.9-8.3,1.3c-0.4,0.1-0.9,0.2-1.3,0c-4.3-2-8.9-2.1-13.5-1.9
		c-3.2,0.1-6.4,0.5-9.4,1.8c-2.8,1.2-4.9,3-5.7,6c-1.1,4.5,0.1,10.5,6.6,12.9c2.5,0.9,5.1,1.3,7.8,1.4c4.3,0.1,8.6-0.1,12.7-2
		c3.8-1.7,6-4.6,6.4-8.8c0.1-1.5-0.2-2.9-0.4-4.4c1.8-2,3.5-4,5.3-6C-234.3,702.6-234.4,702.4-234.5,702.3z"/>
</g>
</svg>
